<svg width="19" height="19" viewBox="0 0 19 19" fill="none" xmlns="http://www.w3.org/2000/svg">
<path d="M11.255 2.09475C10.8163 1.44952 10.4291 0.855897 10.0678 0.313897C10.0162 0.236469 9.93873 0.15904 9.8613 0.107421C9.55159 -0.099055 9.13864 0.00418301 8.93216 0.313897C8.59664 0.855897 8.20949 1.42371 7.74492 2.09475C5.70597 5.08866 2.66045 9.60532 2.66045 12.1863C2.66045 14.0704 3.43473 15.7738 4.67359 17.0127C5.91245 18.2257 7.61587 19 9.49997 19C11.3841 19 13.0875 18.2257 14.3263 16.9868C15.5652 15.748 16.3395 14.0446 16.3395 12.1605C16.3395 9.57952 13.294 5.08866 11.255 2.09475ZM13.3972 16.0577C12.3906 17.0643 11.0227 17.6579 9.49997 17.6579C7.97721 17.6579 6.6093 17.0385 5.60273 16.0577C4.59616 15.0511 4.00254 13.6832 4.00254 12.1605C4.00254 9.99247 6.91902 5.68228 8.85473 2.81742C9.08702 2.4819 9.29349 2.14637 9.49997 1.86247C9.70645 2.14637 9.91292 2.4819 10.1452 2.81742C12.0809 5.70809 14.9974 9.99247 14.9974 12.1605C14.9974 13.6832 14.378 15.0511 13.3972 16.0577Z" fill="#67807C"/>
<path d="M13.5004 11.6959C13.1391 11.6701 12.8294 11.954 12.8036 12.3153C12.7778 12.8831 12.5971 13.4251 12.3132 13.8897C12.0293 14.3543 11.6163 14.7672 11.126 15.0253C10.8163 15.206 10.6872 15.619 10.8679 15.9287C11.0743 16.29 11.4873 16.3932 11.797 16.2126C12.4939 15.8254 13.0617 15.2576 13.4488 14.6124C13.8618 13.9671 14.0941 13.1929 14.1199 12.3928C14.1457 12.0314 13.8618 11.7217 13.5004 11.6959Z" fill="#67807C"/>
</svg>
