<svg width="16" height="18" viewBox="0 0 16 18" fill="none" xmlns="http://www.w3.org/2000/svg">
<path d="M15.3192 5.76417L9.8192 0.264168C9.68995 0.134918 9.51576 0.0625 9.33334 0.0625H3.83334C1.61684 0.0625 0.395844 1.2835 0.395844 3.5V14.5C0.395844 16.7165 1.61684 17.9375 3.83334 17.9375H12.0833C14.2998 17.9375 15.5208 16.7165 15.5208 14.5V6.25C15.5208 6.06758 15.4485 5.8925 15.3192 5.76417ZM10.0208 2.41009L13.1732 5.5625H12.0833C10.6378 5.5625 10.0208 4.94558 10.0208 3.5V2.41009ZM12.0833 16.5625H3.83334C2.38776 16.5625 1.77084 15.9456 1.77084 14.5V3.5C1.77084 2.05442 2.38776 1.4375 3.83334 1.4375H8.64584V3.5C8.64584 5.7165 9.86684 6.9375 12.0833 6.9375H14.1458V14.5C14.1458 15.9456 13.5289 16.5625 12.0833 16.5625ZM5.43751 9C5.43751 9.3795 5.12951 9.6875 4.75001 9.6875C4.37051 9.6875 4.06251 9.3795 4.06251 9C4.06251 8.6205 4.37051 8.3125 4.75001 8.3125C5.12951 8.3125 5.43751 8.6205 5.43751 9ZM5.43751 12.6667C5.43751 13.0462 5.12951 13.3542 4.75001 13.3542C4.37051 13.3542 4.06251 13.0462 4.06251 12.6667C4.06251 12.2872 4.37051 11.9792 4.75001 11.9792C5.12951 11.9792 5.43751 12.2872 5.43751 12.6667ZM11.8542 9C11.8542 9.3795 11.5462 9.6875 11.1667 9.6875H7.04168C6.66218 9.6875 6.35418 9.3795 6.35418 9C6.35418 8.6205 6.66218 8.3125 7.04168 8.3125H11.1667C11.5462 8.3125 11.8542 8.6205 11.8542 9ZM11.8542 12.6667C11.8542 13.0462 11.5462 13.3542 11.1667 13.3542H7.04168C6.66218 13.3542 6.35418 13.0462 6.35418 12.6667C6.35418 12.2872 6.66218 11.9792 7.04168 11.9792H11.1667C11.5462 11.9792 11.8542 12.2872 11.8542 12.6667Z" fill="#A2BDB3"/>
</svg>
