<svg width="23" height="21" viewBox="0 0 23 21" fill="none" xmlns="http://www.w3.org/2000/svg">
<g clip-path="url(#clip0_32_343)">
<path fill-rule="evenodd" clip-rule="evenodd" d="M6.79541 19.252L9.65572 20.0645V19.002L9.88921 18.752H11.5236V20.002V20.877H9.77247L7.61263 19.877L6.79541 19.252Z" fill="#CDBDB2"/>
<path fill-rule="evenodd" clip-rule="evenodd" d="M16.1323 19.252L13.3304 20.0645V19.002L13.0969 18.752H11.4625V20.002V20.877H13.2137L15.3734 19.877L16.1323 19.252Z" fill="#CDBDB2"/>
<path fill-rule="evenodd" clip-rule="evenodd" d="M9.89023 16.9394L9.65674 19.0018L9.94855 18.7518H12.9839L13.3342 19.0018L13.1007 16.9394L12.6337 16.6268L10.2988 16.6894L9.89023 16.9394Z" fill="#393939"/>
<path fill-rule="evenodd" clip-rule="evenodd" d="M8.31201 3.00195L9.71295 6.50195L10.3551 16.6895H12.6316L13.3321 6.50195L14.6163 3.00195H8.31201Z" fill="#F89C35"/>
<path fill-rule="evenodd" clip-rule="evenodd" d="M2.1818 10.6877L0.547363 15.7501L4.63345 15.5001H7.26016V13.3127L7.14342 8.81269L6.55969 9.31269L2.1818 10.6877Z" fill="#F89D35"/>
<path fill-rule="evenodd" clip-rule="evenodd" d="M5.27881 11.252L10.0654 11.377L9.54006 14.002L7.26348 13.377L5.27881 11.252Z" fill="#D87C30"/>
<path fill-rule="evenodd" clip-rule="evenodd" d="M5.27881 11.3164L7.26348 13.3164V15.3164L5.27881 11.3164Z" fill="#EA8D3A"/>
<path fill-rule="evenodd" clip-rule="evenodd" d="M7.26025 13.377L9.59516 14.002L10.3541 16.6895L9.82865 17.002L7.26025 15.377V13.377Z" fill="#F89D35"/>
<path fill-rule="evenodd" clip-rule="evenodd" d="M7.26251 15.3752L6.79553 19.2502L9.88933 16.9377L7.26251 15.3752Z" fill="#EB8F35"/>
<path fill-rule="evenodd" clip-rule="evenodd" d="M10.0588 11.377L10.3507 16.6895L9.4751 13.9707L10.0588 11.377Z" fill="#EA8E3A"/>
<path fill-rule="evenodd" clip-rule="evenodd" d="M4.5708 15.4376L7.25594 15.375L6.78896 19.25L4.5708 15.4376Z" fill="#D87C30"/>
<path fill-rule="evenodd" clip-rule="evenodd" d="M1.83156 20.9395L6.79318 19.2519L4.57502 15.4395L0.547363 15.7519L1.83156 20.9395Z" fill="#EB8F35"/>
<path fill-rule="evenodd" clip-rule="evenodd" d="M9.71513 6.50195L7.20516 8.75195L5.27881 11.252L10.0654 11.4395L9.71513 6.50195Z" fill="#E8821E"/>
<path fill-rule="evenodd" clip-rule="evenodd" d="M6.79541 19.2519L9.88921 16.9395L9.65572 18.9395V20.0645L7.55431 19.6269L6.79541 19.2519Z" fill="#DFCEC3"/>
<path fill-rule="evenodd" clip-rule="evenodd" d="M16.1323 19.2519L13.0969 16.9395L13.3304 18.9395V20.0645L15.4319 19.6269L16.1323 19.2519Z" fill="#DFCEC3"/>
<path fill-rule="evenodd" clip-rule="evenodd" d="M8.77728 12.502L9.41943 13.9395L7.14285 13.3145L8.77728 12.502Z" fill="#393939"/>
<path fill-rule="evenodd" clip-rule="evenodd" d="M1.771 0.0644531L9.70967 6.5019L8.36716 3.0019L1.771 0.0644531Z" fill="#E88F35"/>
<path fill-rule="evenodd" clip-rule="evenodd" d="M1.76995 0.0644531L0.719238 3.50195L1.30296 7.25195L0.894356 7.50195L1.47808 8.06445L1.0111 8.50195L1.6532 9.12695L1.24459 9.50195L2.17855 10.752L6.5565 9.31445C8.69683 7.48112 9.74754 6.54362 9.70862 6.50195C9.66971 6.46029 7.02348 4.31445 1.76995 0.0644531Z" fill="#8E5A30"/>
<path fill-rule="evenodd" clip-rule="evenodd" d="M20.7411 10.6877L22.3755 15.7501L18.2894 15.5001H15.6627V13.3127L15.7794 8.81269L16.3632 9.31269L20.7411 10.6877Z" fill="#F89D35"/>
<path fill-rule="evenodd" clip-rule="evenodd" d="M17.644 11.252L12.8575 11.377L13.3828 14.002L15.6594 13.377L17.644 11.252Z" fill="#D87C30"/>
<path fill-rule="evenodd" clip-rule="evenodd" d="M17.644 11.3164L15.6594 13.3164V15.3164L17.644 11.3164Z" fill="#EA8D3A"/>
<path fill-rule="evenodd" clip-rule="evenodd" d="M15.6626 13.377L13.3277 14.002L12.5688 16.6895L13.0942 17.002L15.6626 15.377V13.377Z" fill="#F89D35"/>
<path fill-rule="evenodd" clip-rule="evenodd" d="M15.6603 15.3752L16.1273 19.2502L13.0919 17.0002L15.6603 15.3752Z" fill="#EB8F35"/>
<path fill-rule="evenodd" clip-rule="evenodd" d="M12.864 11.377L12.5721 16.6895L13.4478 13.9707L12.864 11.377Z" fill="#EA8E3A"/>
<path fill-rule="evenodd" clip-rule="evenodd" d="M18.3462 15.4376L15.6611 15.375L16.128 19.25L18.3462 15.4376Z" fill="#D87C30"/>
<path fill-rule="evenodd" clip-rule="evenodd" d="M21.0913 20.9395L16.1297 19.2519L18.3478 15.4395L22.3755 15.7519L21.0913 20.9395Z" fill="#EB8F35"/>
<path fill-rule="evenodd" clip-rule="evenodd" d="M13.2077 6.50195L15.7177 8.75195L17.644 11.252L12.8575 11.4395L13.2077 6.50195Z" fill="#E8821E"/>
<path fill-rule="evenodd" clip-rule="evenodd" d="M14.1456 12.502L13.5034 13.9395L15.78 13.3145L14.1456 12.502Z" fill="#393939"/>
<path fill-rule="evenodd" clip-rule="evenodd" d="M21.1519 0.0644531L13.2132 6.5019L14.5557 3.0019L21.1519 0.0644531Z" fill="#E88F35"/>
<path fill-rule="evenodd" clip-rule="evenodd" d="M21.1529 0.0644531L22.2036 3.50195L21.6199 7.25195L22.0285 7.50195L21.4448 8.06445L21.9118 8.50195L21.2697 9.12695L21.6783 9.50195L20.7443 10.752L16.3664 9.31445C14.226 7.48112 13.1753 6.54362 13.2142 6.50195C13.2531 6.46029 15.8994 4.31445 21.1529 0.0644531Z" fill="#8E5A30"/>
</g>
<defs>
<clipPath id="clip0_32_343">
<rect width="22" height="21" fill="white" transform="translate(0.486816)"/>
</clipPath>
</defs>
</svg>
