<svg width="22" height="22" viewBox="0 0 22 22" fill="none" xmlns="http://www.w3.org/2000/svg">
<path d="M3.07791 8.4926C3.62023 6.30857 5.35197 4.62002 7.5484 4.13332L7.96061 4.04198C9.71753 3.65267 11.5383 3.65267 13.2953 4.04198L13.7075 4.13332C15.9039 4.62002 17.6356 6.30857 18.1779 8.4926C18.6152 10.2533 18.6152 12.0943 18.1779 13.8551C17.6356 16.0391 15.9039 17.7276 13.7075 18.2143L13.2952 18.3057C11.5383 18.695 9.71753 18.695 7.96061 18.3057L7.5484 18.2143C5.35197 17.7276 3.62023 16.0391 3.07791 13.8551C2.6407 12.0943 2.6407 10.2533 3.07791 8.4926Z" stroke="#A2BDB3" stroke-width="1.5"/>
<path fill-rule="evenodd" clip-rule="evenodd" d="M10.6288 6.63176C10.9761 6.63176 11.2576 6.89694 11.2576 7.22407V7.70865H11.3272C12.4965 7.70865 13.3532 8.66627 13.3532 9.73685C13.3532 10.064 13.0717 10.3292 12.7245 10.3292C12.3772 10.3292 12.0957 10.064 12.0957 9.73685C12.0957 9.22138 11.7013 8.89326 11.3272 8.89326H11.2576V10.758L12.1065 11.0488C12.8779 11.313 13.3532 12.0317 13.3532 12.7928C13.3532 13.7617 12.5768 14.6368 11.5065 14.6368H11.2576V15.1215C11.2576 15.4486 10.9761 15.7138 10.6288 15.7138C10.2816 15.7138 10.0001 15.4486 10.0001 15.1215V14.6368H9.92998C8.76068 14.6368 7.90399 13.6792 7.90399 12.6086C7.90399 12.2815 8.1855 12.0163 8.53275 12.0163C8.88 12.0163 9.1615 12.2815 9.1615 12.6086C9.1615 13.1241 9.55594 13.4522 9.92998 13.4522H10.0001V11.5877L9.1507 11.2967C8.37925 11.0325 7.90399 10.3138 7.90399 9.55263C7.90399 8.5838 8.68042 7.70865 9.75073 7.70865H10.0001V7.22407C10.0001 6.89694 10.2816 6.63176 10.6288 6.63176ZM10.0001 8.89326H9.75073C9.47569 8.89326 9.1615 9.1389 9.1615 9.55263C9.1615 9.86901 9.35718 10.107 9.58044 10.1834L10.0001 10.3272V8.89326ZM11.2576 12.0185V13.4522H11.5065C11.7815 13.4522 12.0957 13.2066 12.0957 12.7928C12.0957 12.4765 11.9 12.2385 11.6768 12.162L11.2576 12.0185Z" fill="#A2BDB3"/>
</svg>
