<svg width="34" height="33" viewBox="0 0 34 33" fill="none" xmlns="http://www.w3.org/2000/svg">
<path d="M13.1312 6.47494L5.98438 3.82769L16.6735 0L13.1312 6.47494Z" fill="url(#paint0_linear_32_263)"/>
<path d="M7.98943 15.1071L2.01642 25.758L0 13.7842L5.98498 3.8278L7.98943 15.1071Z" fill="url(#paint1_linear_32_263)"/>
<path d="M8.00669 15.209L5.98438 3.82762L13.1311 6.47488L8.00669 15.209Z" fill="url(#paint2_linear_32_263)"/>
<path d="M7.99035 15.1029L2.01562 25.7579L9.59145 25.5539L7.99035 15.1029Z" fill="url(#paint3_linear_32_263)"/>
<path d="M9.59162 25.5539L2.01562 25.7579L10.974 33L9.59162 25.5539Z" fill="url(#paint4_linear_32_263)"/>
<path d="M10.9742 33L9.5918 25.5539H20.0732L10.9742 33Z" fill="url(#paint5_linear_32_263)"/>
<path d="M20.0737 25.554L10.9746 33H22.8549L31.6109 25.5499L20.0737 25.554Z" fill="url(#paint6_linear_32_263)"/>
<path d="M27.872 19.078L20.0742 25.5538L31.6115 25.5498L27.872 19.078Z" fill="url(#paint7_linear_32_263)"/>
<path d="M31.6105 25.55L27.8711 19.0781L33.4897 13.7819L31.6105 25.55Z" fill="url(#paint8_linear_32_263)"/>
<path d="M33.4901 13.7821L27.8715 19.0781L22.9121 10.0103L33.4901 13.7821Z" fill="url(#paint9_linear_32_263)"/>
<path d="M22.9318 10.0273L16.674 0L27.9979 3.76046L33.4901 13.7821L22.9318 10.0273Z" fill="url(#paint10_linear_32_263)"/>
<path d="M16.6732 0L13.1309 6.47494L22.9312 10.0273L16.6732 0Z" fill="url(#paint11_linear_32_263)"/>
<path d="M13.1318 6.47495L7.99023 15.1008L9.59238 25.5539H20.0737L27.8715 19.0781L22.9317 10.0265L13.1318 6.47495Z" fill="url(#paint12_linear_32_263)"/>
<defs>
<linearGradient id="paint0_linear_32_263" x1="14.1166" y1="-0.0730578" x2="14.0217" y2="7.3338" gradientUnits="userSpaceOnUse">
<stop stop-color="#00FEFF"/>
<stop offset="1" stop-color="#07A252"/>
</linearGradient>
<linearGradient id="paint1_linear_32_263" x1="2.29696" y1="-13.7755" x2="12.9508" y2="-12.3417" gradientUnits="userSpaceOnUse">
<stop stop-color="#00FEFF"/>
<stop offset="1" stop-color="#07A252"/>
</linearGradient>
<linearGradient id="paint2_linear_32_263" x1="8.04165" y1="-5.22542" x2="17.2507" y2="-3.06699" gradientUnits="userSpaceOnUse">
<stop stop-color="#00FEFF"/>
<stop offset="1" stop-color="#07A252"/>
</linearGradient>
<linearGradient id="paint3_linear_32_263" x1="4.21276" y1="6.55275" x2="14.3405" y2="9.45052" gradientUnits="userSpaceOnUse">
<stop stop-color="#00FEFF"/>
<stop offset="1" stop-color="#07A252"/>
</linearGradient>
<linearGradient id="paint4_linear_32_263" x1="4.59242" y1="19.5705" x2="14.7528" y2="24.0861" gradientUnits="userSpaceOnUse">
<stop stop-color="#00FEFF"/>
<stop offset="1" stop-color="#07A252"/>
</linearGradient>
<linearGradient id="paint5_linear_32_263" x1="12.6705" y1="19.5705" x2="21.0055" y2="25.5676" gradientUnits="userSpaceOnUse">
<stop stop-color="#00FEFF"/>
<stop offset="1" stop-color="#07A252"/>
</linearGradient>
<linearGradient id="paint6_linear_32_263" x1="16.9071" y1="19.5706" x2="26.2881" y2="32.7966" gradientUnits="userSpaceOnUse">
<stop stop-color="#00FEFF"/>
<stop offset="1" stop-color="#07A252"/>
</linearGradient>
<linearGradient id="paint7_linear_32_263" x1="23.444" y1="13.8703" x2="31.9313" y2="22.5941" gradientUnits="userSpaceOnUse">
<stop stop-color="#00FEFF"/>
<stop offset="1" stop-color="#07A252"/>
</linearGradient>
<linearGradient id="paint8_linear_32_263" x1="29.4802" y1="4.33897" x2="36.8889" y2="5.64796" gradientUnits="userSpaceOnUse">
<stop stop-color="#00FEFF"/>
<stop offset="1" stop-color="#07A252"/>
</linearGradient>
<linearGradient id="paint9_linear_32_263" x1="25.876" y1="2.76117" x2="38.0749" y2="8.08836" gradientUnits="userSpaceOnUse">
<stop stop-color="#00FEFF"/>
<stop offset="1" stop-color="#07A252"/>
</linearGradient>
<linearGradient id="paint10_linear_32_263" x1="21.5073" y1="-11.0642" x2="40.481" y2="-2.51552" gradientUnits="userSpaceOnUse">
<stop stop-color="#00FEFF"/>
<stop offset="1" stop-color="#07A252"/>
</linearGradient>
<linearGradient id="paint11_linear_32_263" x1="15.9081" y1="-8.17498" x2="27.563" y2="-4.05631" gradientUnits="userSpaceOnUse">
<stop stop-color="#00FEFF"/>
<stop offset="1" stop-color="#07A252"/>
</linearGradient>
<linearGradient id="paint12_linear_32_263" x1="10.4574" y1="9.36781" x2="17.9758" y2="25.536" gradientUnits="userSpaceOnUse">
<stop stop-color="#D5FFFF"/>
<stop offset="1" stop-color="#D8FFE3"/>
</linearGradient>
</defs>
</svg>
