<svg width="19" height="16" viewBox="0 0 19 16" fill="none" xmlns="http://www.w3.org/2000/svg">
<path d="M18.9454 1.81626C18.2723 2.10838 17.5029 2.30313 16.7335 2.40051C17.5029 1.91363 18.1761 1.13463 18.4646 0.258258C17.6952 0.745133 16.8297 1.03726 15.9642 1.23201C14.5216 -0.325992 12.0212 -0.423366 10.4825 1.03726C9.42463 2.01101 9.03996 3.47163 9.32847 4.83488C6.15486 4.64013 3.1736 3.17951 1.25021 0.647758C0.192339 2.49788 0.769358 4.73751 2.50041 5.90601C1.82723 5.90601 1.25021 5.80863 0.673188 5.51651V5.61388C0.673188 7.46401 2.01956 9.11938 3.84679 9.50888C3.26977 9.70363 2.69275 9.70363 2.11573 9.60626C2.59658 11.2616 4.1353 12.3328 5.77018 12.3328C4.1353 13.5986 2.01956 14.1829 0 13.9881C1.82723 15.1566 3.84679 15.7409 5.96252 15.7409C12.0212 15.6435 17.022 10.6774 17.022 4.54276C17.022 4.44538 17.022 4.44538 17.022 4.34801C17.022 4.15326 17.022 3.95851 17.022 3.86113C17.7914 3.27688 18.4646 2.59526 18.9454 1.81626Z" fill="#45FFFF" fill-opacity="0.49"/>
</svg>
