<svg width="16" height="19" viewBox="0 0 16 19" fill="none" xmlns="http://www.w3.org/2000/svg">
<path d="M6.74316 8.38983C7.26224 8.38983 7.60829 8.72471 7.60829 9.22704C7.60829 9.72936 7.26224 10.0642 6.74316 10.0642C6.22409 10.0642 5.87804 9.72936 5.87804 9.22704C5.87804 8.72471 6.22409 8.38983 6.74316 8.38983ZM10.0306 8.38983C10.5497 8.38983 10.8958 8.80843 10.8093 9.31076C10.8093 9.81308 10.3767 10.148 9.85762 10.0642C9.42506 10.0642 9.07901 9.64564 9.07901 9.22704C9.16552 8.72471 9.51157 8.38983 10.0306 8.38983ZM14.1833 0.6875C15.2214 0.6875 16 1.52471 16 2.44564V2.52936V18.6875L14.0967 16.9294L13.0586 15.9247L11.8474 14.9201L12.28 16.5945H2.2445C1.20635 16.5945 0.427734 15.7573 0.427734 14.7526V2.52936C0.427734 1.52471 1.20635 0.6875 2.2445 0.6875H14.1833ZM10.8958 12.3247C12.0204 12.3247 12.9721 11.8224 13.5777 10.9852C13.5777 9.22704 13.1451 7.46889 12.28 5.8782C11.5879 5.29215 10.7227 5.04099 9.77111 4.95727L9.6846 5.12471C10.4632 5.37587 11.2418 5.71076 11.9339 6.21308C11.0688 5.79448 10.2037 5.45959 9.25203 5.37587C8.64644 5.29215 8.04085 5.29215 7.43527 5.37587C7.34875 5.37587 7.34875 5.37587 7.26224 5.37587C6.57014 5.45959 5.87804 5.62704 5.27245 5.96192C4.9264 6.12936 4.75337 6.21308 4.75337 6.21308C5.44547 5.62704 6.22409 5.29215 7.08921 5.04099L7.0027 4.95727C6.13757 4.95727 5.27245 5.29215 4.49383 5.8782C3.71522 7.46889 3.28265 9.22704 3.19614 10.9852C3.80173 11.8224 4.83988 12.3247 5.87804 12.3247C5.87804 12.3247 6.22409 11.9061 6.48362 11.5712C5.87804 11.4038 5.27245 11.0689 4.9264 10.5666C5.01291 10.6503 5.09942 10.6503 5.18593 10.734C5.18593 10.734 5.27245 10.734 5.27245 10.8177C5.44547 10.9015 5.70501 11.0689 5.96455 11.1526C6.39711 11.3201 6.82968 11.4038 7.26224 11.5712C8.04085 11.7387 8.81947 11.7387 9.59808 11.5712C10.0306 11.4875 10.4632 11.4038 10.8958 11.1526C11.2418 10.9852 11.5879 10.8177 11.9339 10.6503C11.5014 11.1526 10.9823 11.5712 10.2902 11.7387C10.6362 11.9898 10.8958 12.3247 10.8958 12.3247Z" fill="#45FFFF" fill-opacity="0.49"/>
</svg>
