<svg width="35" height="40" viewBox="0 0 35 40" fill="none" xmlns="http://www.w3.org/2000/svg">
<path fill-rule="evenodd" clip-rule="evenodd" d="M14.5215 1.81645C16.3787 0.72785 18.6213 0.72785 20.4785 1.81645L31.2452 8.12743C33.2512 9.30331 34.5 11.5672 34.5 14.028V25.972C34.5 28.4328 33.2512 30.6967 31.2452 31.8726L20.4785 38.1836C18.6213 39.2721 16.3787 39.2721 14.5215 38.1836L3.75485 31.8726C1.74878 30.6967 0.5 28.4328 0.5 25.972L0.5 14.028C0.5 11.5672 1.74877 9.30331 3.75485 8.12743L14.5215 1.81645Z" fill="#A0CED8" fill-opacity="0.05" stroke="url(#paint0_linear_32_475)" stroke-width="0.5"/>
<path fill-rule="evenodd" clip-rule="evenodd" d="M14.9683 4.29603C16.5469 3.35587 18.4532 3.35587 20.0318 4.29603L29.1834 9.74642C30.8886 10.762 31.95 12.7171 31.95 14.8424V25.1576C31.95 27.2829 30.8886 29.2381 29.1834 30.2536L20.0318 35.704C18.4532 36.6441 16.5469 36.6441 14.9683 35.704L5.81667 30.2536C4.11151 29.2381 3.05005 27.2829 3.05005 25.1576L3.05005 14.8424C3.05005 12.7171 4.11151 10.762 5.81667 9.74642L14.9683 4.29603Z" fill="#A0CED8"/>
<path d="M17.5 23.2259L22.6 20.1104L17.5 11.3636L12.4 20.1104L17.5 23.2259Z" fill="#00232C"/>
<path d="M17.4986 28.636L22.6 21.144L17.4986 24.2837L12.4 21.144L17.4986 28.636Z" fill="#00232C"/>
<defs>
<linearGradient id="paint0_linear_32_475" x1="6.76316" y1="-5.43548" x2="24.2699" y2="38.6806" gradientUnits="userSpaceOnUse">
<stop stop-color="#A0CED8"/>
<stop offset="1" stop-color="#A0CED8" stop-opacity="0"/>
</linearGradient>
</defs>
</svg>
